<svg width="70" height="70" viewBox="0 0 70 70" fill="none" xmlns="http://www.w3.org/2000/svg">
<path d="M0 35C0 15.67 15.67 0 35 0C54.33 0 70 15.67 70 35C70 54.33 54.33 70 35 70C15.67 70 0 54.33 0 35ZM66.5 35C66.5 17.603 52.397 3.5 35 3.5C17.603 3.5 3.5 17.603 3.5 35C3.5 52.397 17.603 66.5 35 66.5C52.397 66.5 66.5 52.397 66.5 35Z" fill="#F7F9FF"/>
<path d="M0 35C0 15.67 15.67 0 35 0C54.33 0 70 15.67 70 35C70 54.33 54.33 70 35 70C15.67 70 0 54.33 0 35ZM66.5 35C66.5 17.603 52.397 3.5 35 3.5C17.603 3.5 3.5 17.603 3.5 35C3.5 52.397 17.603 66.5 35 66.5C52.397 66.5 66.5 52.397 66.5 35Z" fill="url(#paint0_radial_813_329)" fill-opacity="0.2"/>
<path d="M0 35C0 15.67 15.67 0 35 0C54.33 0 70 15.67 70 35C70 54.33 54.33 70 35 70C15.67 70 0 54.33 0 35ZM66.5 35C66.5 17.603 52.397 3.5 35 3.5C17.603 3.5 3.5 17.603 3.5 35C3.5 52.397 17.603 66.5 35 66.5C52.397 66.5 66.5 52.397 66.5 35Z" fill="url(#paint1_radial_813_329)" fill-opacity="0.2"/>
<rect x="5" y="5" width="60" height="60" rx="30" fill="#F7F9FF"/>
<rect x="5" y="5" width="60" height="60" rx="30" fill="url(#paint2_radial_813_329)" fill-opacity="0.2"/>
<rect x="5" y="5" width="60" height="60" rx="30" fill="url(#paint3_radial_813_329)" fill-opacity="0.2"/>
<defs>
<radialGradient id="paint0_radial_813_329" cx="0" cy="0" r="1" gradientUnits="userSpaceOnUse" gradientTransform="translate(98.2258 93.1452) rotate(-135.597) scale(153.291)">
<stop stop-color="#06002D"/>
<stop offset="0.696511" stop-color="#100073" stop-opacity="0"/>
</radialGradient>
<radialGradient id="paint1_radial_813_329" cx="0" cy="0" r="1" gradientUnits="userSpaceOnUse" gradientTransform="translate(2.82259 7.33871) rotate(40.4951) scale(66.0677)">
<stop offset="0.15319" stop-color="white"/>
<stop offset="1" stop-color="white" stop-opacity="0"/>
</radialGradient>
<radialGradient id="paint2_radial_813_329" cx="0" cy="0" r="1" gradientUnits="userSpaceOnUse" gradientTransform="translate(-19.1935 -14.8387) rotate(44.4032) scale(131.392)">
<stop stop-color="#06002D"/>
<stop offset="0.696511" stop-color="#100073" stop-opacity="0"/>
</radialGradient>
<radialGradient id="paint3_radial_813_329" cx="0" cy="0" r="1" gradientUnits="userSpaceOnUse" gradientTransform="translate(62.5806 58.7097) rotate(-139.505) scale(56.6294)">
<stop offset="0.15319" stop-color="white"/>
<stop offset="1" stop-color="white" stop-opacity="0"/>
</radialGradient>
</defs>
</svg>
